<?xml version="1.0"?>
<svg xmlns="http://www.w3.org/2000/svg" xmlns:xlink="http://www.w3.org/1999/xlink" xmlns:svgjs="http://svgjs.com/svgjs" version="1.1" width="512" height="512" x="0" y="0" viewBox="0 0 512 512" style="enable-background:new 0 0 512 512" xml:space="preserve" class=""><g><g xmlns="http://www.w3.org/2000/svg"><g><path d="m424.394 504.543h-336.788c-8.284 0-15-6.716-15-15v-305.872h366.788v305.872c0 8.285-6.716 15-15 15z" fill="#f4f0f9" data-original="#e28086" style="" class=""/></g><g><path d="m406.45 183.671v272.332c0 8.614-6.983 15.596-15.596 15.596h-318.248v17.964c0 8.273 6.707 14.98 14.98 14.98h336.828c8.273 0 14.98-6.707 14.98-14.98v-305.892z" fill="#dabeca" data-original="#dd636e" style="" class=""/></g><g><path d="m201.96 183.671h108.081v320.872h-108.081z" fill="#ffe07d" data-original="#ffe07d" style="" class=""/></g><g><path d="m201.96 471.599h108.081v32.944h-108.081z" fill="#d6a671" data-original="#ffd064" style="" class=""/></g><g><path d="m82.111 97.971 65.33 53.096h67.261l-66.75-87.003z" fill="#d6a671" data-original="#ffd064" style="" class=""/></g><g><path d="m147.952 64.064-36.24 18.663 52.432 68.34h50.558z" fill="#ffc250" data-original="#ffc250" style="" class=""/></g><g><path d="m429.869 97.971-65.33 53.096h-67.261l66.75-87.003z" fill="#d6a671" data-original="#ffd064" style="" class=""/></g><path d="m405.966 85.661-80.475 65.406h39.048l65.33-53.096z" fill="#ffc250" data-original="#ffc250" style="" class=""/><g><path d="m118.489 8.115 38.268 12.792c19.299 6.451 35.449 19.951 45.22 37.8l31.342 57.253-18.617 35.107-47.973-32.519c-10.904-7.391-23.45-12.002-36.546-13.43l-42.128-4.595c-7.109-.775-11.613-8.005-9.175-14.728l25.74-70.977c2.04-5.627 8.193-8.6 13.869-6.703z" fill="#ffe07d" data-original="#ffe07d" style="" class=""/></g><g><path d="m99.73 29.662 38.268 12.792c19.299 6.451 35.449 19.951 45.22 37.8l35.115 63.966 14.986-28.261-31.342-57.253c-9.771-17.849-25.922-31.349-45.22-37.8l-38.268-12.791c-5.675-1.897-11.829 1.076-13.869 6.702l-5.338 14.72c.149.043.299.075.448.125z" fill="#d6a671" data-original="#ffd064" style="" class=""/></g><g><path d="m393.511 8.115-38.268 12.792c-19.299 6.451-35.449 19.951-45.22 37.8l-31.342 57.253 18.617 35.107 47.973-32.519c10.904-7.391 23.45-12.002 36.546-13.43l42.128-4.595c7.109-.775 11.613-8.005 9.175-14.728l-25.74-70.977c-2.04-5.627-8.193-8.6-13.869-6.703z" fill="#ffe07d" data-original="#ffe07d" style="" class=""/></g><g><g><path d="m433.12 85.794-25.74-70.977c-2.04-5.626-8.193-8.599-13.869-6.702l-16.153 5.399 32.125 88.585 14.461-1.577c7.109-.775 11.614-8.005 9.176-14.728z" fill="#d6a671" data-original="#ffd064" style="" class=""/></g></g><g><path d="m256 64.064c-24.779 0-44.867 20.087-44.867 44.867v58.377h89.733v-58.377c.001-24.779-20.087-44.867-44.866-44.867z" fill="#ffc250" data-original="#ffc250" style="" class=""/></g><g><path d="m256 64.064c-5.046 0-9.892.845-14.418 2.381 17.703 6.007 30.448 22.752 30.448 42.485v58.377h28.837v-58.377c-.001-24.778-20.088-44.866-44.867-44.866z" fill="#ebb044" data-original="#ebb044" style="" class=""/></g><g><path d="m462.587 247.327h-413.174c-6.627 0-12-5.373-12-12v-80.54c0-6.627 5.373-12 12-12h413.175c6.627 0 12 5.373 12 12v80.54c-.001 6.627-5.373 12-12.001 12z" fill="#f4f0f9" data-original="#e28086" style="" class=""/></g><g><path d="m462.603 142.786h-21.606v58.474c0 6.891-5.586 12.477-12.477 12.477h-391.107v21.606c0 6.619 5.365 11.984 11.984 11.984h413.206c6.619 0 11.984-5.365 11.984-11.984v-80.572c0-6.619-5.365-11.985-11.984-11.985z" fill="#dabeca" data-original="#dd636e" style="" class=""/></g><g><path d="m201.96 142.786h108.081v104.54h-108.081z" fill="#ffe07d" data-original="#ffe07d" style="" class=""/></g><g><path d="m201.96 213.737h108.081v33.59h-108.081z" fill="#d6a671" data-original="#ffd064" style="" class=""/></g><g><path d="m404.934 286.575c-7.82 6.699-11.68 16.33-11.324 25.904.035.953-.826 1.675-1.758 1.473-9.364-2.025-19.522.091-27.485 6.618-14.794 12.126-15.521 34.404-2.316 48.243 23.65 24.788 76.161 26.633 93.623 26.529 3.395-.02 6.295-2.45 6.909-5.79 3.156-17.175 10.525-69.199-9.745-96.82-11.316-15.421-33.378-18.602-47.904-6.157z" fill="#ff897c" data-original="#e4989d" style="" class=""/></g><g><path d="m452.838 292.733c-11.138-15.178-32.679-18.487-47.206-6.724.792.872 1.546 1.793 2.258 2.762 20.269 27.621 12.901 79.645 9.745 96.82-.601 3.27-3.397 5.652-6.701 5.77 18.356 3.591 35.969 4.033 44.74 3.981 3.396-.02 6.295-2.45 6.909-5.79 3.156-17.174 10.525-69.198-9.745-96.819z" fill="#f4f0f9" data-original="#e28086" style="" class=""/></g><path d="m462.603 135.263h-66.785l38.026-30.904c1.812-1.358 3.386-3.054 4.625-5.043 3.025-4.857 3.642-10.729 1.691-16.109l-25.739-70.977c-3.452-9.521-13.678-14.463-23.285-11.252l-15.129 5.057c-3.924 1.312-6.041 5.555-4.729 9.478 1.312 3.924 5.553 6.042 9.479 4.73l15.129-5.058c1.834-.611 3.793.332 4.452 2.152l25.739 70.977c.718 2.665-.659 4.284-2.945 4.729l-42.129 4.595c-14.257 1.555-28.066 6.63-39.935 14.676l-27.94 18.94c-.223-.041-4.771-.895-4.771-.895v-21.462c0-7.997-1.808-15.577-5.028-22.363l13.265-24.231c7.52-13.737 18.99-24.509 33.167-31.152 3.746-1.755 5.36-6.214 3.605-9.96s-6.214-5.359-9.959-3.605c-17.079 8.002-30.894 20.977-39.953 37.523l-9.648 17.623c-9.538-9.966-22.954-16.192-37.805-16.192-14.845 0-28.256 6.221-37.793 16.18l-9.659-17.644c-10.711-19.566-28.261-34.235-49.416-41.307l-38.27-12.791c-9.602-3.209-19.832 1.731-23.285 11.252l-25.739 70.977c-1.951 5.38-1.334 11.252 1.691 16.109 1.058 1.698 2.361 3.181 3.847 4.425.003.003 38.784 31.522 38.784 31.522h-66.764c-10.738 0-19.474 8.736-19.474 19.474v80.572c0 10.738 8.736 19.474 19.474 19.474h15.719v234.747c0 12.39 10.08 22.47 22.47 22.47h336.828c12.39 0 22.47-10.08 22.47-22.47v-86.805c2.727.079 5.177.111 7.391.111.494 0 .974-.001 1.439-.004 6.983-.041 12.967-5.056 14.232-11.926 3.866-21.044 10.528-73.168-11.073-102.606-3.261-4.443-7.359-8.138-11.989-10.934v-22.583h15.719c10.738 0 19.474-8.736 19.474-19.474v-80.572c.001-10.738-8.736-19.474-19.474-19.474zm-113.13-10.549c9.854-6.68 21.319-10.893 33.155-12.185l20.108-2.193-30.67 24.927h-38.155zm-7.873 61.954c-1.767 21.349 9.359 41.557 28.343 51.481l3.164 1.654h-55.577v-53.523c0-4.137-3.353-7.49-7.49-7.49s-7.49 3.353-7.49 7.49v53.523h-93.101v-89.56h112.88c12.707 7.096 20.544 21.049 19.271 36.425zm-85.6-115.147c20.609 0 37.376 16.767 37.376 37.376v19.345c-2.808.692-5.081 2.986-5.596 6.02-.057.336-.083.67-.094 1.001h-69.062v-26.365c0-20.61 16.767-37.377 37.376-37.377zm-170.078 16.793 25.739-70.977c.66-1.82 2.618-2.766 4.452-2.152l38.268 12.792c17.564 5.871 32.133 18.049 41.025 34.293l13.273 24.246c-3.225 6.791-5.036 14.377-5.036 22.381v25.591l-32.712-22.174c-11.869-8.046-25.679-13.122-39.935-14.676l-42.129-4.595c-2.326-.459-3.647-2.063-2.945-4.729zm23.318 22.02 20.132 2.196c11.836 1.291 23.301 5.504 33.155 12.185l15.562 10.549h-38.176zm-64.338 124.975v-80.572c0-2.478 2.016-4.494 4.494-4.494h145.073v89.56h-145.072c-2.479 0-4.495-2.016-4.495-4.494zm35.194 254.221v-234.747h114.373v11.17c0 4.137 3.353 7.49 7.49 7.49s7.49-3.353 7.49-7.49v-11.17h93.101v242.236h-93.101v-193.99c0-4.137-3.353-7.49-7.49-7.49s-7.49 3.353-7.49 7.49v193.991h-106.883c-4.13 0-7.49-3.36-7.49-7.49zm351.808 0c0 4.13-3.36 7.49-7.49 7.49h-106.883v-242.237h71.156c3.851 6.766 5.623 14.696 4.765 22.863l-1.304 12.426c-2.97 4.746-4.915 10.071-5.682 15.672-9.71-.386-19.199 2.76-26.852 9.033-8.573 7.027-13.669 17.047-14.353 28.216-.697 11.393 3.446 22.688 11.366 30.99 18.251 19.128 50.581 25.712 75.278 27.86v87.687zm23.371-101.675c-15.568.052-66.202-1.565-87.81-24.211-5.053-5.296-7.697-12.489-7.253-19.735.426-6.96 3.586-13.192 8.897-17.545 4.523-3.707 10.081-5.666 15.798-5.666 1.779 0 3.573.19 5.357.575 2.717.587 5.502-.098 7.633-1.883s3.294-4.405 3.192-7.19c-.286-7.683 2.89-14.949 8.712-19.937 5.216-4.469 11.908-6.492 18.83-5.692 7.212.83 13.832 4.692 18.162 10.592 18.521 25.238 11.273 75.349 8.482 90.692zm-23.371-115.944c-.518-.08-1.036-.161-1.558-.221-7.623-.879-15.079.383-21.728 3.59.229-7.131-.966-14.072-3.394-20.496h26.68zm35.194-36.602c0 2.478-2.016 4.494-4.494 4.494h-66.093c-4.426-5.339-9.947-9.869-16.394-13.24l-3.233-1.69c-13.634-7.127-21.624-21.639-20.354-36.97 1.1-13.299-2.8-26.427-10.981-36.969-.183-.236-.377-.46-.563-.692h117.618c2.478 0 4.494 2.016 4.494 4.494z" fill="#7e5955" data-original="#000000" style="" class=""/></g></g></svg>
