<?xml version="1.0"?>
<svg xmlns="http://www.w3.org/2000/svg" xmlns:xlink="http://www.w3.org/1999/xlink" xmlns:svgjs="http://svgjs.com/svgjs" version="1.1" width="512" height="512" x="0" y="0" viewBox="0 0 512 512" style="enable-background:new 0 0 512 512" xml:space="preserve" class=""><g><g xmlns="http://www.w3.org/2000/svg"><g><path d="m448 16v400h-88v-320l-216-80z" fill="#dabeca" data-original="#acabb1" style="" class=""/><path d="m56 96h304v400h-304z" fill="#dabeca" data-original="#e0e0e2" style="" class=""/><path d="m360 96h-216v-80z" fill="#ae8596" data-original="#57565c" style="" class=""/><path d="m248 328h-80l-8-64h96z" fill="#ca9e96" data-original="#ffda44" style="" class=""/><g fill="#ffeb99"><rect height="32" rx="16" width="128" x="144" y="232" fill="#f4f0f9" data-original="#ffeb99" style="" class=""/><rect height="32" rx="16" width="96" x="160" y="200" fill="#f4f0f9" data-original="#ffeb99" style="" class=""/><path d="m232 152v48h-48v-12.187a4.008 4.008 0 0 1 4.4-3.974q1.778.159 3.6.161a40.016 40.016 0 0 0 39.2-32z" fill="#f4f0f9" data-original="#ffeb99" style="" class=""/></g><path d="m88 368h240v32h-240z" fill="#ffe07d" data-original="#ff9811" style="" class=""/></g><g><path d="m448 8h-304a8 8 0 0 0 -8 8v72h-80a8 8 0 0 0 -8 8v400a8 8 0 0 0 8 8h304a8 8 0 0 0 8-8v-72h80a8 8 0 0 0 8-8v-400a8 8 0 0 0 -8-8zm-296 19.49 163.37 60.51h-163.37zm200 460.51h-288v-384h288zm88-80h-72v-312a8.01 8.01 0 0 0 -5.22-7.5l-174.15-64.5h251.37z" fill="#7e5955" data-original="#000000" style="" class=""/><path d="m304 424h-192a8 8 0 0 0 0 16h192a8 8 0 0 0 0-16z" fill="#7e5955" data-original="#000000" style="" class=""/><path d="m248 448h-112a8 8 0 0 0 0 16h112a8 8 0 0 0 0-16z" fill="#7e5955" data-original="#000000" style="" class=""/><path d="m280 448h-8a8 8 0 0 0 0 16h8a8 8 0 0 0 0-16z" fill="#7e5955" data-original="#000000" style="" class=""/><path d="m262.3 224.85a23.982 23.982 0 0 0 -22.3-32.85v-40a8 8 0 0 0 -8-8h-.8a8.006 8.006 0 0 0 -7.84 6.41 32.079 32.079 0 0 1 -31.36 25.59c-.96 0-1.93-.04-2.88-.13a12.011 12.011 0 0 0 -13.12 11.94v4.19a23.982 23.982 0 0 0 -22.3 32.85 23.991 23.991 0 0 0 -.9 46.04l7.26 58.1a8 8 0 0 0 7.94 7.01h80a8 8 0 0 0 7.94-7.01l7.26-58.1a23.991 23.991 0 0 0 -.9-46.04zm-38.3-45.12v12.27h-32a48 48 0 0 0 32-12.27zm-48 28.27h64a8 8 0 0 1 0 16h-64a8 8 0 0 1 0-16zm64.94 112h-65.88l-6-48h77.88zm15.06-64h-96a8 8 0 0 1 0-16h96a8 8 0 0 1 0 16z" fill="#7e5955" data-original="#000000" style="" class=""/><path d="m88 408h240a8 8 0 0 0 8-8v-32a8 8 0 0 0 -8-8h-240a8 8 0 0 0 -8 8v32a8 8 0 0 0 8 8zm8-32h224v16h-224z" fill="#7e5955" data-original="#000000" style="" class=""/></g></g></g></svg>
